<?xml version="1.0" encoding="utf-8"?>
<!-- Generator: Adobe Illustrator 27.5.0, SVG Export Plug-In . SVG Version: 6.00 Build 0)  -->
<svg version="1.1" id="Layer_1" xmlns="http://www.w3.org/2000/svg" xmlns:xlink="http://www.w3.org/1999/xlink" x="0px" y="0px"
	 viewBox="0 0 450.93 226.78" style="enable-background:new 0 0 450.93 226.78;" xml:space="preserve">
<style type="text/css">
	.st0{fill:#B8572D;}
	.st1{fill:#292929;}
	.st2{fill:#CA9B8A;}
	.st3{fill:#FFFFFF;}
	.st4{fill:#B9572D;}
	.st5{fill:#B9572D;stroke:#B9572D;stroke-width:1.5;stroke-miterlimit:10;}
	.st6{fill:#292929;stroke:#292929;stroke-width:1.5;stroke-miterlimit:10;}
	.st7{fill:#CA9B8A;stroke:#CA9B8A;stroke-width:1.5;stroke-miterlimit:10;}
	.st8{fill:#231F20;stroke:#FFFFFF;stroke-width:1.5;stroke-miterlimit:10;}
	.st9{fill:#231F20;stroke:#000000;stroke-width:1.5;stroke-miterlimit:10;}
	.st10{fill:#FFFFFF;stroke:#000000;stroke-miterlimit:10;}
	.st11{fill:#F9CBCB;}
	.st12{fill:#56727F;}
	.st13{fill:#F9CCCC;stroke:#F9CCCC;stroke-width:1.5;stroke-miterlimit:10;}
	.st14{fill:#B9572D;stroke:#BA572D;stroke-miterlimit:10;}
</style>
<g>
	<g>
		<path class="st0" d="M109.26,151.28c-2.48,14.96-6.48,37.04-8.4,52.24c-1.12,4.8-3.6,7.2-7.28,7.2c-1.84,0-3.2-0.24-4.64-0.88
			c0.16-0.56,0.48-2.16,0.56-2.72c1.12,0.72,2.32,1.12,3.84,1.12c2.24,0,3.92-1.2,4.8-4.88c0.16-1.68,0.48-3.68,0.64-5.76
			c-0.56,0.08-1.04,0.08-1.28,0.08c-1.2-6.48-5.68-34.4-7.84-46.4h3.28c0.4,4.16,2.72,18.64,4.16,28.8c1.04,6.88,1.84,12,2.16,15.12
			h0.32c0.4-3.04,1.04-8,2.24-14.88c1.44-10.4,3.52-24,4.32-29.04H109.26z"/>
		<path class="st0" d="M121.02,201.68c-6.16,0-9.36-4.8-9.36-25.76s3.44-25.28,9.36-25.28c6,0,9.44,4.32,9.44,25.28
			S127.26,201.68,121.02,201.68z M121.02,153.12c-4.08,0-6.64,3.52-6.64,22.88s2.48,23.28,6.64,23.28c4.24,0,6.72-3.92,6.72-23.28
			S125.18,153.12,121.02,153.12z"/>
		<path class="st0" d="M155.02,154c-1.68,0-4.64-0.32-7.04-0.56v0.32c3.6,1.68,4.8,5.36,4.8,14.8c0,11.04-2.72,15.28-8.8,15.28
			c-1.28,0-2.32-0.16-3.28-0.56c-1.6,2.24-2.64,4.96-2.64,6.96c0,1.92,0.88,2.72,2.8,2.72c2.56,0,4.88-0.16,6.56-0.16
			c4.8,0,7.52,2.4,7.52,8.4c0,5.6-2.48,9.6-11.04,9.6c-8.72,0-10.32-3.6-10.32-7.68c0-3.52,1.92-6.32,4.24-8.08
			c-1.6-0.72-2.16-2.24-2.16-4.16c0-3.04,1.84-6,3.68-8.4c-2.88-2.08-4.08-6.72-4.08-14.72c0-11.52,2.88-16.56,8.72-16.56
			c0.72,0,6.72,0.08,11.04,0.08V154z M139.5,195.36c-2.08,1.92-3.36,4.24-3.36,7.12c0,3.2,1.68,5.92,7.84,5.92
			c5.92,0,8.48-2.64,8.48-7.04c0-4.64-1.92-6.16-5.6-6.16c-2,0-4.88,0.16-6.96,0.16H139.5z M144.06,153.68
			c-4.64,0-6.24,4.16-6.24,14.24c0,10.16,1.84,13.52,6.24,13.52c4.24,0,6.08-3.36,6.08-13.44
			C150.14,157.84,148.46,153.68,144.06,153.68z M138.06,194.4v0.48l0.64-0.4v-0.08H138.06z M138.06,195.52h0.64v-0.24
			c-0.24-0.08-0.48-0.08-0.64-0.16V195.52z"/>
		<path class="st0" d="M159.58,167.76c-0.48-12.08,1.76-17.12,8.24-17.12c5.44,0,7.92,3.84,7.92,9.92c0,10.32-0.16,17.2-0.16,24.88
			c0,6.08,0.08,13.76,0.48,15.68h-2.32c-0.72,0-0.88-0.24-0.88-1.2c0-1.12,0.08-2.72,0.08-4.16l-0.56-0.08c-1.04,4.08-3.6,6-7.12,6
			c-4.48,0-6.72-3.92-6.72-14.64c0-9.52,2.8-13.12,8.4-13.12c2.4,0,4.48,0.32,6,0.88c0-5.12,0.08-9.84,0.08-14.24
			c0-4.48-1.44-7.44-5.2-7.44c-4.24,0-5.92,3.12-5.6,14.64h-1.36H159.58z M172.86,188.96c0-4.32,0-8.48,0.08-12.48
			c-1.6-0.32-3.6-0.48-5.44-0.48c-4.08,0-6.32,2.48-6.32,10.56c0,10,1.6,12.56,5.04,12.56C170.7,199.12,172.86,193.28,172.86,188.96
			z"/>
		<path class="st0" d="M194.54,146.88c0-5.36,1.92-8.08,6.72-8.08c1.52,0,2.8,0.16,4.16,0.72c-0.16,0.72-0.4,1.92-0.48,2.64
			c-1.04-0.48-2.16-0.72-3.36-0.72c-3.04,0-4.32,1.44-4.32,5.52v4.64c2.56,0,5.12,0,7.68-0.08c-0.08,0.8-0.08,1.76,0,2.72
			c-2.48-0.08-5.12-0.08-7.68-0.08c0,32,0.08,40.24,0.16,46.96h-1.44h-1.52c0.16-6.24,0.24-14.32,0.24-27.44
			c0-3.52-0.08-10.24-0.08-19.52l-3.92,0.08v-2.64h3.84V146.88z"/>
		<path class="st0" d="M217.09,201.68c-6.16,0-9.36-4.8-9.36-25.76s3.44-25.28,9.36-25.28c6,0,9.44,4.32,9.44,25.28
			S223.34,201.68,217.09,201.68z M217.09,153.12c-4.08,0-6.64,3.52-6.64,22.88s2.48,23.28,6.64,23.28c4.24,0,6.72-3.92,6.72-23.28
			S221.25,153.12,217.09,153.12z"/>
		<path class="st0" d="M234.77,159.12c1.04-6.24,3.44-8.24,7.04-8.24c1.28,0,2.4,0.24,3.44,0.72c-0.24,0.8-0.56,2.24-0.72,3.2
			c-0.96-0.56-1.92-0.8-3.2-0.8c-3.68,0-6.24,3.84-6.24,12.88c0,11.04-0.08,26.96,0.16,34.24h-3.04c0.16-7.12,0.08-14.96,0.08-26.16
			c0-10.08,0.08-16.96-0.08-23.68h2.48c-0.08,1.44-0.32,4.32-0.48,7.84H234.77z"/>
		<path class="st0" d="M263.17,142.64c-0.08,2.56-0.08,5.52-0.16,8.72c3.04,0,6.08,0,9.44-0.08c-0.08,0.88-0.08,1.76-0.08,2.72
			c-2.8-0.08-6.16-0.16-9.36-0.24c-0.08,11.36-0.08,25.68-0.08,40c0,3.6,1.36,5.2,4.64,5.2c1.52,0,2.8-0.32,4.24-1.04
			c0.16,0.8,0.4,1.84,0.72,2.56c-1.76,0.72-3.44,1.12-5.2,1.12c-4.96,0-7.12-2.96-7.12-7.92c0-9.92,0.08-23.28,0.08-39.92h-3.44
			v-2.48l3.44,0.08v-8.72h1.28H263.17z"/>
		<path class="st0" d="M293.09,182.24c0.24,12.24-1.04,19.44-7.84,19.44c-6,0-9.44-3.2-9.44-25.68c0-19.68,3.44-25.36,9.44-25.36
			c6,0,7.84,5.52,7.84,14.72c0,3.28-0.08,6.88-0.08,11.2h-7.12c-2.56,0-5.12,0-7.36-0.08c0,19.28,2.64,22.72,6.64,22.72
			c4.24,0,5.6-4.88,5.36-16.96h1.36H293.09z M278.53,174.32c3.28,0,9.28,0,11.84-0.08c0.16-2.48,0.16-5.84,0.16-8.8
			c0-9.04-1.6-12.4-5.28-12.4C281.41,153.04,278.77,157.44,278.53,174.32z"/>
		<path class="st0" d="M315.57,182.24c0.24,12.24-1.04,19.44-7.84,19.44c-6,0-9.44-3.2-9.44-25.68c0-19.68,3.44-25.36,9.44-25.36
			c6,0,7.84,5.52,7.84,14.72c0,3.28-0.08,6.88-0.08,11.2h-7.12c-2.56,0-5.12,0-7.36-0.08c0,19.28,2.64,22.72,6.64,22.72
			c4.24,0,5.6-4.88,5.36-16.96h1.36H315.57z M301.01,174.32c3.28,0,9.28,0,11.84-0.08c0.16-2.48,0.16-5.84,0.16-8.8
			c0-9.04-1.6-12.4-5.28-12.4C303.89,153.04,301.25,157.44,301.01,174.32z"/>
		<path class="st0" d="M336.85,201.12c0.08-10.24,0.24-22.56,0.24-40.48c0-4.72-1.28-7.44-5.2-7.44c-4.16,0-7.2,3.28-7.2,9.76
			c0,25.36,0.08,31.68,0.16,38.16h-2.88c0.08-6.8,0.08-13.84,0.08-24.16c0-10.96,0-20-0.08-25.68h2.72v4.88h0.48
			c1.52-3.76,4.32-5.44,7.76-5.44c4.48,0,6.88,2.96,6.88,9.04c0,12.88-0.08,17.84-0.08,24.88c0,6.24,0,11.36,0.16,16.48H336.85z"/>
		<path class="st0" d="M347.73,189.76c0,7.28,2.32,9.52,6.4,9.52c4,0,5.76-2.24,5.76-8.16c0-5.92-1.92-9.92-7.12-14.56
			c-4.8-4.24-7.2-9.12-7.2-16.24c0-6.48,2.8-9.76,8.16-9.76c5.68,0,8,3.28,8,11.28c0,2.4,0,3.28-0.08,5.6h-1.36h-1.28
			c0.08-1.84,0.08-4.08,0.08-5.44c0-6.88-1.52-9.04-5.36-9.04c-3.76,0-5.52,2.24-5.52,7.36c0,6.08,1.6,9.68,6.4,14
			c5.12,4.48,7.92,9.44,7.92,16.72c0,7.04-2.56,10.64-8.4,10.64c-6.48,0-9.04-3.84-9.04-11.6c0-2.48,0.08-3.36,0.16-5.44h1.2h1.28
			V189.76z"/>
	</g>
	<g>
		<path class="st0" d="M85.91,24.7c-0.13,12.74-0.13,27.3-0.13,48.62c0,20.67,0.13,34.84,0.13,48.88h-9.36
			c0.39-20.15,0.39-33.54,0.39-54.21c0-9.88,0.65-22.49,0.91-33.67h-0.52C76.29,44.59,74.99,57.46,73.82,65l-9.49,57.2h-4.42
			l-9.49-57.98c-1.3-8.06-2.6-20.28-3.77-30.03h-0.39c0.26,11.96,0.78,23.4,0.78,33.93c0,20.93,0.26,33.93,0.39,54.08h-8.32
			c0.13-14.04,0.13-28.21,0.13-48.88c0-21.32,0-35.88-0.13-48.62h12.48c1.3,8.32,5.33,32.89,8.97,53.43
			c0.65,4.68,1.43,11.83,2.08,18.33h0.65c0.65-6.5,1.56-13.39,2.34-18.07c3.51-20.93,7.54-45.11,8.84-53.69H85.91z"/>
		<path class="st0" d="M113.6,123.25c-12.74,0-18.98-10.92-18.98-50.96c0-39.91,6.63-48.62,18.98-48.62s19.11,8.71,19.11,48.62
			C132.71,112.32,126.34,123.25,113.6,123.25z M123.22,72.8c0-34.45-3.38-40.56-9.49-40.56c-6.37,0-9.75,5.98-9.75,40.56
			c0,34.58,3.38,41.86,9.75,41.86C119.97,114.67,123.22,107.26,123.22,72.8z"/>
		<path class="st0" d="M158.45,123.25c-12.74,0-18.98-10.92-18.98-50.96c0-39.91,6.63-48.62,18.98-48.62s19.11,8.71,19.11,48.62
			C177.56,112.32,171.19,123.25,158.45,123.25z M168.07,72.8c0-34.45-3.38-40.56-9.49-40.56c-6.37,0-9.75,5.98-9.75,40.56
			c0,34.58,3.38,41.86,9.75,41.86C164.82,114.67,168.07,107.26,168.07,72.8z"/>
		<path class="st0" d="M200.96,24.7c14.3,0,20.67,6.11,20.67,48.36c0,40.95-5.59,49.14-21.06,49.14h-14.56
			c0.26-12.22,0.26-27.95,0.26-48.62s0-38.48-0.26-48.88H200.96z M212.4,73.32c0-36.4-3.77-40.17-11.44-40.17
			c-2.08,0-3.64,0-5.33,0.13c-0.13,9.23-0.26,25.61-0.26,40.56c0,21.19,0,32.76,0.13,39.78c1.69,0.13,3.25,0.13,4.94,0.13
			C209.15,113.76,212.4,109.73,212.4,73.32z"/>
		<path class="st0" d="M261.8,71.89c3.25,0.13,6.24,0.13,8.58,0.13c2.6,0,6.37,0,9.75-0.13c1.17,39.26-1.56,51.35-16.77,51.35
			c-13.26,0-19.11-11.18-19.11-50.83s6.11-48.75,19.63-48.75c12.09,0,16.64,8.97,16.64,27.3c0,3.51,0,6.63-0.26,9.88
			c-1.04,0-2.6-0.13-4.29-0.13s-3.25,0-4.68,0.13c0.13-3.25,0.26-7.28,0.26-9.49c0-15.21-2.6-19.24-7.93-19.24
			c-6.5,0-10.14,5.46-10.14,40.3c0,35.1,2.99,42.64,10.14,42.64c6.76,0,8.58-6.76,7.93-35.49c-3.12,0-6.76,0-9.75,0.13v-3.64V71.89z
			"/>
		<path class="st0" d="M290.01,122.21c0.26-11.31,0.13-27.95,0.13-48.75s0.13-37.57-0.13-48.75h9.62
			c-0.26,11.18-0.26,27.82-0.26,48.75c0,20.67,0,37.31,0.26,48.75H290.01z"/>
		<path class="st0" d="M332.78,81.51c6.5,1.3,8.84,4.94,10.92,19.24c1.43,8.19,2.47,16.9,3.64,21.45h-8.71
			c-1.69,0-1.82-1.04-2.47-4.03c-3.38-30.29-4.55-33.67-10.14-33.67c-2.73,0-4.16,0.13-6.89,0.13c0.13,15.6,0.26,28.86,0.65,37.57
			h-9.75c0-14.04,0.13-27.95,0.13-48.75c0-20.67-0.13-34.71-0.13-48.75h17.16c11.05,0,17.03,5.85,17.03,28.73
			c0,17.03-2.99,25.48-11.44,27.69V81.51z M326.4,76.57c5.85,0,8.84-7.15,8.84-21.45c0-19.24-3.12-22.23-9.75-22.23
			c-1.3,0-4.03,0-6.37,0.13c0,14.95,0,29.77,0,43.42C320.55,76.44,323.03,76.57,326.4,76.57z"/>
		<path class="st0" d="M363.97,24.7c-0.39,8.84-0.39,24.18-0.39,48.49c0,13.78,0.13,32.11,0.13,40.56c4.29,0,9.88-0.13,14.82-0.39
			v4.29v4.55h-24.18c0-4.55,0.13-27.95,0.13-48.75c0-23.79,0.13-39.91-0.26-48.75H363.97z"/>
		<path class="st0" d="M392.05,88.14c0,3.64-0.13,7.41-0.13,10.01c0,13.13,2.34,17.03,8.06,17.03c5.59,0,7.54-3.64,7.54-11.96
			c0-10.01-2.86-18.2-10.14-26c-9.75-9.36-14.17-19.37-14.17-33.54c0-14.04,5.46-20.02,16.38-20.02c11.57,0,16.25,5.98,16.25,23.92
			c0,3.9,0,6.89-0.13,11.18c-1.04,0-2.6-0.13-4.16-0.13c-1.69,0-3.25,0.13-4.55,0.13c0.13-4.03,0.26-8.19,0.26-11.83
			c0-11.57-2.21-15.08-7.54-15.08c-5.2,0-7.54,3.38-7.54,11.83c0,9.36,2.08,16.9,9.62,24.83c8.84,8.97,14.56,19.63,14.56,33.67
			c0,13.91-4.81,21.19-16.38,21.19c-13,0-17.29-9.1-17.29-23.79c0-5.59,0.13-7.8,0.26-11.57c1.17,0.13,2.34,0.13,4.16,0.13H392.05z"
			/>
	</g>
</g>
</svg>
