<?xml version="1.0" encoding="utf-8"?>
<!-- Generator: Adobe Illustrator 27.5.0, SVG Export Plug-In . SVG Version: 6.00 Build 0)  -->
<svg version="1.1" id="Layer_1" xmlns="http://www.w3.org/2000/svg" xmlns:xlink="http://www.w3.org/1999/xlink" x="0px" y="0px"
	 viewBox="0 0 450.93 149.76" style="enable-background:new 0 0 450.93 149.76;" xml:space="preserve">
<style type="text/css">
	.st0{fill:#B8572D;}
	.st1{fill:#292929;}
	.st2{fill:#CA9B8A;}
	.st3{fill:#FFFFFF;}
	.st4{fill:#B9572D;}
	.st5{fill:#B9572D;stroke:#B9572D;stroke-width:1.5;stroke-miterlimit:10;}
	.st6{fill:#292929;stroke:#292929;stroke-width:1.5;stroke-miterlimit:10;}
	.st7{fill:#CA9B8A;stroke:#CA9B8A;stroke-width:1.5;stroke-miterlimit:10;}
	.st8{fill:#231F20;stroke:#FFFFFF;stroke-width:1.5;stroke-miterlimit:10;}
	.st9{fill:#231F20;stroke:#000000;stroke-width:1.5;stroke-miterlimit:10;}
	.st10{fill:#FFFFFF;stroke:#000000;stroke-miterlimit:10;}
	.st11{fill:#F9CBCB;}
	.st12{fill:#56727F;}
	.st13{fill:#F9CCCC;stroke:#F9CCCC;stroke-width:1.5;stroke-miterlimit:10;}
	.st14{fill:#B9572D;stroke:#BA572D;stroke-miterlimit:10;}
</style>
<g>
	<path class="st2" d="M85.91,24.7c-0.13,12.74-0.13,27.3-0.13,48.62c0,20.67,0.13,34.84,0.13,48.88h-9.36
		c0.39-20.15,0.39-33.54,0.39-54.21c0-9.88,0.65-22.49,0.91-33.67h-0.52C76.29,44.59,74.99,57.46,73.82,65l-9.49,57.2h-4.42
		l-9.49-57.98c-1.3-8.06-2.6-20.28-3.77-30.03h-0.39c0.26,11.96,0.78,23.4,0.78,33.93c0,20.93,0.26,33.93,0.39,54.08h-8.32
		c0.13-14.04,0.13-28.21,0.13-48.88c0-21.32,0-35.88-0.13-48.62h12.48c1.3,8.32,5.33,32.89,8.97,53.43
		c0.65,4.68,1.43,11.83,2.08,18.33h0.65c0.65-6.5,1.56-13.39,2.34-18.07c3.51-20.93,7.54-45.11,8.84-53.69H85.91z"/>
	<path class="st2" d="M113.6,123.25c-12.74,0-18.98-10.92-18.98-50.96c0-39.91,6.63-48.62,18.98-48.62s19.11,8.71,19.11,48.62
		C132.71,112.32,126.34,123.25,113.6,123.25z M123.22,72.8c0-34.45-3.38-40.56-9.49-40.56c-6.37,0-9.75,5.98-9.75,40.56
		c0,34.58,3.38,41.86,9.75,41.86C119.97,114.67,123.22,107.26,123.22,72.8z"/>
	<path class="st2" d="M158.45,123.25c-12.74,0-18.98-10.92-18.98-50.96c0-39.91,6.63-48.62,18.98-48.62s19.11,8.71,19.11,48.62
		C177.56,112.32,171.19,123.25,158.45,123.25z M168.07,72.8c0-34.45-3.38-40.56-9.49-40.56c-6.37,0-9.75,5.98-9.75,40.56
		c0,34.58,3.38,41.86,9.75,41.86C164.82,114.67,168.07,107.26,168.07,72.8z"/>
	<path class="st2" d="M200.96,24.7c14.3,0,20.67,6.11,20.67,48.36c0,40.95-5.59,49.14-21.06,49.14h-14.56
		c0.26-12.22,0.26-27.95,0.26-48.62s0-38.48-0.26-48.88H200.96z M212.4,73.32c0-36.4-3.77-40.17-11.44-40.17
		c-2.08,0-3.64,0-5.33,0.13c-0.13,9.23-0.26,25.61-0.26,40.56c0,21.19,0,32.76,0.13,39.78c1.69,0.13,3.25,0.13,4.94,0.13
		C209.15,113.76,212.4,109.73,212.4,73.32z"/>
	<path class="st2" d="M261.8,71.89c3.25,0.13,6.24,0.13,8.58,0.13c2.6,0,6.37,0,9.75-0.13c1.17,39.26-1.56,51.35-16.77,51.35
		c-13.26,0-19.11-11.18-19.11-50.83s6.11-48.75,19.63-48.75c12.09,0,16.64,8.97,16.64,27.3c0,3.51,0,6.63-0.26,9.88
		c-1.04,0-2.6-0.13-4.29-0.13s-3.25,0-4.68,0.13c0.13-3.25,0.26-7.28,0.26-9.49c0-15.21-2.6-19.24-7.93-19.24
		c-6.5,0-10.14,5.46-10.14,40.3c0,35.1,2.99,42.64,10.14,42.64c6.76,0,8.58-6.76,7.93-35.49c-3.12,0-6.76,0-9.75,0.13v-3.64V71.89z"
		/>
	<path class="st2" d="M290.01,122.21c0.26-11.31,0.13-27.95,0.13-48.75s0.13-37.57-0.13-48.75h9.62
		c-0.26,11.18-0.26,27.82-0.26,48.75c0,20.67,0,37.31,0.26,48.75H290.01z"/>
	<path class="st2" d="M332.78,81.51c6.5,1.3,8.84,4.94,10.92,19.24c1.43,8.19,2.47,16.9,3.64,21.45h-8.71
		c-1.69,0-1.82-1.04-2.47-4.03c-3.38-30.29-4.55-33.67-10.14-33.67c-2.73,0-4.16,0.13-6.89,0.13c0.13,15.6,0.26,28.86,0.65,37.57
		h-9.75c0-14.04,0.13-27.95,0.13-48.75c0-20.67-0.13-34.71-0.13-48.75h17.16c11.05,0,17.03,5.85,17.03,28.73
		c0,17.03-2.99,25.48-11.44,27.69V81.51z M326.41,76.57c5.85,0,8.84-7.15,8.84-21.45c0-19.24-3.12-22.23-9.75-22.23
		c-1.3,0-4.03,0-6.37,0.13c0,14.95,0,29.77,0,43.42C320.55,76.44,323.03,76.57,326.41,76.57z"/>
	<path class="st2" d="M363.97,24.7c-0.39,8.84-0.39,24.18-0.39,48.49c0,13.78,0.13,32.11,0.13,40.56c4.29,0,9.88-0.13,14.82-0.39
		v4.29v4.55h-24.18c0-4.55,0.13-27.95,0.13-48.75c0-23.79,0.13-39.91-0.26-48.75H363.97z"/>
	<path class="st2" d="M392.05,88.14c0,3.64-0.13,7.41-0.13,10.01c0,13.13,2.34,17.03,8.06,17.03c5.59,0,7.54-3.64,7.54-11.96
		c0-10.01-2.86-18.2-10.14-26c-9.75-9.36-14.17-19.37-14.17-33.54c0-14.04,5.46-20.02,16.38-20.02c11.57,0,16.25,5.98,16.25,23.92
		c0,3.9,0,6.89-0.13,11.18c-1.04,0-2.6-0.13-4.16-0.13c-1.69,0-3.25,0.13-4.55,0.13c0.13-4.03,0.26-8.19,0.26-11.83
		c0-11.57-2.21-15.08-7.54-15.08c-5.2,0-7.54,3.38-7.54,11.83c0,9.36,2.08,16.9,9.62,24.83c8.84,8.97,14.56,19.63,14.56,33.67
		c0,13.91-4.81,21.19-16.38,21.19c-13,0-17.29-9.1-17.29-23.79c0-5.59,0.13-7.8,0.26-11.57c1.17,0.13,2.34,0.13,4.16,0.13H392.05z"
		/>
</g>
</svg>
